<?xml version="1.0" encoding="UTF-8" standalone="no"?>
<svg
   xmlns:dc="http://purl.org/dc/elements/1.1/"
   xmlns:cc="http://creativecommons.org/ns#"
   xmlns:rdf="http://www.w3.org/1999/02/22-rdf-syntax-ns#"
   xmlns:svg="http://www.w3.org/2000/svg"
   xmlns="http://www.w3.org/2000/svg"
   xmlns:sodipodi="http://sodipodi.sourceforge.net/DTD/sodipodi-0.dtd"
   xmlns:inkscape="http://www.inkscape.org/namespaces/inkscape"
   width="74.897881mm"
   height="7.2283936mm"
   viewBox="0 0 74.897881 7.2283936"
   version="1.1"
   id="svg8"
   sodipodi:docname="name.svg"
   inkscape:version="1.0.2 (e86c870879, 2021-01-15)">
  <defs
     id="defs2" />
  <sodipodi:namedview
     id="base"
     pagecolor="#ffffff"
     bordercolor="#666666"
     borderopacity="1.0"
     inkscape:pageopacity="0.0"
     inkscape:pageshadow="2"
     inkscape:zoom="0.7"
     inkscape:cx="-236.26421"
     inkscape:cy="94.223247"
     inkscape:document-units="mm"
     inkscape:current-layer="layer1"
     inkscape:document-rotation="0"
     showgrid="false"
     inkscape:window-width="1920"
     inkscape:window-height="1017"
     inkscape:window-x="-8"
     inkscape:window-y="-8"
     inkscape:window-maximized="1" />
  <metadata
     id="metadata5">
    <rdf:RDF>
      <cc:Work
         rdf:about="">
        <dc:format>image/svg+xml</dc:format>
        <dc:type
           rdf:resource="http://purl.org/dc/dcmitype/StillImage" />
        <dc:title></dc:title>
      </cc:Work>
    </rdf:RDF>
  </metadata>
  <g
     inkscape:label="Layer 1"
     inkscape:groupmode="layer"
     id="layer1"
     transform="translate(-88.333837,-131.05578)">
    <g
       aria-label="Simon Martineau"
       id="text12"
       style="font-style:normal;font-weight:normal;font-size:10.5833px;line-height:1.25;font-family:sans-serif;fill-opacity:1;stroke:none;stroke-width:0.264583">
      <path
         d="m 92.249657,132.80203 q -0.158749,-0.40217 -0.592664,-0.66675 -0.433916,-0.26458 -0.899581,-0.26458 -0.539748,0 -0.910164,0.26458 -0.359832,0.26458 -0.359832,0.78316 0,0.3175 0.201083,0.53975 0.201083,0.21167 0.518582,0.33867 0.328082,0.11641 0.709081,0.22225 0.391582,0.10583 0.772581,0.24341 0.391582,0.13759 0.709081,0.32809 0.328082,0.1905 0.529165,0.55033 0.201082,0.35983 0.201082,0.85725 0,0.62441 -0.211666,1.09007 -0.211666,0.45509 -0.592665,0.70909 -0.370415,0.254 -0.80433,0.37041 -0.433916,0.11642 -0.941914,0.11642 -0.878414,0 -1.566328,-0.3175 -0.677331,-0.3175 -0.677331,-0.75142 0,-0.43391 0.613831,-0.71966 0.211666,0.40217 0.730248,0.67733 0.518581,0.27517 1.047746,0.27517 0.613832,0 1.015997,-0.27517 0.412749,-0.28575 0.412749,-0.85725 0,-0.33866 -0.275166,-0.57149 -0.264583,-0.23284 -0.666748,-0.34925 -0.402165,-0.11642 -0.878414,-0.28575 -0.476248,-0.17992 -0.878414,-0.381 -0.402165,-0.21167 -0.677331,-0.64558 -0.264582,-0.43392 -0.264582,-1.04775 0,-0.94191 0.709081,-1.46049 0.709081,-0.51859 1.756827,-0.51859 0.444499,0 0.888998,0.11642 0.444498,0.10583 0.77258,0.35983 0.328083,0.24342 0.328083,0.5715 0,0.55033 -0.719665,0.6985 z"
         style="font-style:normal;font-variant:normal;font-weight:bold;font-stretch:normal;font-family:Overlock;-inkscape-font-specification:'Overlock Bold';fill-opacity:1;stroke-width:0.264583"
         id="path905" />
      <path
         d="m 94.757892,133.11953 q 0.761998,0 0.761998,0.56091 0,0.0635 -0.03175,0.43392 -0.03175,0.35983 -0.0635,0.89958 -0.02117,0.53975 -0.02117,1.02658 0,1.41816 0.275165,2.06374 -0.264582,0.11642 -0.603248,0.11642 -0.465665,0 -0.634998,-0.1905 -0.158749,-0.1905 -0.158749,-0.64558 0,-0.16934 0.01058,-0.81492 0.01058,-0.65616 0.01058,-1.00541 0,-1.53458 -0.09525,-2.40241 0.253999,-0.0423 0.550331,-0.0423 z m 0.05292,-0.4445 q -0.317499,0 -0.539748,-0.21167 -0.22225,-0.21166 -0.22225,-0.53975 0,-0.31749 0.232833,-0.52916 0.232832,-0.22225 0.550331,-0.22225 0.306916,0 0.529165,0.22225 0.22225,0.21167 0.22225,0.52916 0,0.3175 -0.232833,0.53975 -0.232832,0.21167 -0.539748,0.21167 z"
         style="font-style:normal;font-variant:normal;font-weight:bold;font-stretch:normal;font-family:Overlock;-inkscape-font-specification:'Overlock Bold';fill-opacity:1;stroke-width:0.264583"
         id="path907" />
      <path
         d="m 96.705205,133.23594 0.04233,-0.0317 q 0.285749,-0.0847 0.507999,-0.0847 0.306915,0 0.476248,0.0952 0.169333,0.0953 0.211666,0.42333 0.751414,-0.59267 1.693328,-0.59267 0.920751,0 1.270001,0.67734 0.74083,-0.67734 1.77799,-0.67734 0.64558,0 1.04775,0.381 0.41274,0.381 0.41274,1.22767 0,0.0317 -0.0212,0.78316 -0.0106,0.74083 -0.0106,1.0795 0,0.86783 0.27517,1.56633 -0.32808,0.13758 -0.60325,0.13758 -0.43391,0 -0.61383,-0.17992 -0.17991,-0.17991 -0.17991,-0.67733 0,-0.37041 0.0212,-1.25941 0.0212,-0.889 0.0212,-1.143 0,-0.58208 -0.23283,-0.86783 -0.22225,-0.28575 -0.59267,-0.28575 -0.5715,0 -1.17475,0.55033 0.0212,1.41817 0.0212,2.159 0,0.95249 0.0635,1.64041 -0.28575,0.0423 -0.51858,0.0423 -0.698498,0 -0.698498,-0.42333 0,-0.17992 0.04233,-1.04775 0.04233,-0.87841 0.04233,-1.76741 0,-0.58208 -0.232833,-0.86783 -0.232832,-0.28575 -0.603248,-0.28575 -0.582081,0 -1.164163,0.55033 0.02117,1.41817 0.02117,2.06375 0,1.01599 0.0635,1.73566 -0.285749,0.0423 -0.529165,0.0423 -0.687915,0 -0.687915,-0.42333 0,-0.24342 0.02117,-0.94191 0.03175,-0.70909 0.03175,-1.28058 0,-1.76741 -0.201083,-2.31775 z"
         style="font-style:normal;font-variant:normal;font-weight:bold;font-stretch:normal;font-family:Overlock;-inkscape-font-specification:'Overlock Bold';fill-opacity:1;stroke-width:0.264583"
         id="path909" />
      <path
         d="m 109.08766,135.7971 q 0,-0.84666 -0.35984,-1.40758 -0.34925,-0.57149 -0.95249,-0.57149 -0.61383,0 -0.9525,0.46566 -0.33867,0.46567 -0.33867,1.23825 0,0.85724 0.33867,1.41816 0.34925,0.56091 0.9525,0.56091 0.62441,0 0.96308,-0.46566 0.34925,-0.46567 0.34925,-1.23825 z m -1.31233,2.48708 q -1.10067,0 -1.778,-0.70908 -0.66675,-0.71967 -0.66675,-1.91558 0,-1.19591 0.66675,-1.90499 0.67733,-0.70909 1.778,-0.70909 1.11124,0 1.78857,0.70909 0.67734,0.70908 0.67734,1.90499 0,1.19591 -0.67734,1.91558 -0.67733,0.70908 -1.78857,0.70908 z"
         style="font-style:normal;font-variant:normal;font-weight:bold;font-stretch:normal;font-family:Overlock;-inkscape-font-specification:'Overlock Bold';fill-opacity:1;stroke-width:0.264583"
         id="path911" />
      <path
         d="m 112.42138,133.63811 q 0.75142,-0.59267 1.69333,-0.59267 0.64558,0 1.04775,0.381 0.40216,0.381 0.40216,1.22767 0,0.11641 -0.0212,0.82549 -0.0106,0.70908 -0.0106,1.03717 0,0.86783 0.27516,1.56633 -0.32808,0.13758 -0.59266,0.13758 -0.43392,0 -0.61384,-0.17992 -0.17991,-0.17991 -0.17991,-0.67733 0,-0.55033 0.0212,-1.32291 0.0212,-0.78317 0.0212,-1.0795 0,-0.58208 -0.23283,-0.86783 -0.23283,-0.28575 -0.60325,-0.28575 -0.56091,0 -1.16416,0.55033 0.0212,1.41817 0.0212,2.06375 0,1.01599 0.0635,1.73566 -0.28574,0.0423 -0.52916,0.0423 -0.68791,0 -0.68791,-0.42333 0,-0.30692 0.0212,-0.99483 0.0318,-0.68792 0.0318,-1.23825 0,-1.75682 -0.20108,-2.30716 0.254,-0.11641 0.55033,-0.11641 0.30692,0 0.47625,0.0952 0.16933,0.0953 0.21166,0.42333 z"
         style="font-style:normal;font-variant:normal;font-weight:bold;font-stretch:normal;font-family:Overlock;-inkscape-font-specification:'Overlock Bold';fill-opacity:1;stroke-width:0.264583"
         id="path913" />
      <path
         d="m 126.13732,133.56403 v 2.4659 q 0,1.42875 0.20108,2.0955 -0.14816,0.0847 -0.5715,0.0847 -0.43391,0 -0.58208,-0.13758 -0.14816,-0.13758 -0.14816,-0.46566 v -4.76249 q -0.6985,1.73566 -1.778,5.31282 -0.16933,0.0423 -0.39158,0.0423 -0.55033,0 -0.67733,-0.27516 -0.3175,-0.6985 -0.94192,-2.49766 -0.62441,-1.80975 -0.94191,-2.60349 v 3.20673 q 0,1.42875 0.20108,2.0955 -0.28575,0.0847 -0.55033,0.0847 -0.37041,0 -0.508,-0.13758 -0.127,-0.13758 -0.127,-0.46566 0,-0.16934 0.0106,-0.83608 0.0106,-0.66675 0.0106,-1.03717 v -2.66699 q 0,-1.18533 -0.20108,-1.86266 0.42333,-0.0847 0.75141,-0.0847 0.60325,0 0.92075,0.508 0.40216,0.64558 0.78316,1.61925 0.39159,0.96308 0.59267,1.62983 0.21166,0.66674 0.58208,1.91557 0.889,-3.34432 1.96849,-5.18581 0.27517,-0.48684 0.89958,-0.48684 0.41275,0 0.68792,0.0847 -0.1905,0.635 -0.1905,2.36008 z"
         style="font-style:normal;font-variant:normal;font-weight:bold;font-stretch:normal;font-family:Overlock;-inkscape-font-specification:'Overlock Bold';fill-opacity:1;stroke-width:0.264583"
         id="path915" />
      <path
         d="m 130.1378,136.66493 q 0,-0.48683 0.0212,-0.75141 -0.3175,0.0423 -0.46566,0.0635 -0.13759,0.0212 -0.381,0.0635 -0.24342,0.0423 -0.35984,0.0953 -0.10583,0.0529 -0.23283,0.127 -0.127,0.0741 -0.17991,0.1905 -0.0529,0.10583 -0.0529,0.254 0,0.42333 0.21167,0.62441 0.21166,0.20108 0.53974,0.20108 0.53975,0 0.92075,-0.40216 -0.0212,-0.13758 -0.0212,-0.46567 z m 0.0423,-1.39699 q 0,-0.35983 -0.0212,-0.55033 -0.0106,-0.1905 -0.0847,-0.43392 -0.0635,-0.24342 -0.23283,-0.34925 -0.15875,-0.11641 -0.43391,-0.11641 -0.34925,0 -0.66675,0.23283 -0.30692,0.22225 -0.4445,0.62441 -0.94191,-0.0106 -0.94191,-0.56091 0,-0.45508 0.63499,-0.762 0.64559,-0.30692 1.4605,-0.30692 0.97366,0 1.41816,0.40217 0.45508,0.40217 0.45508,1.43933 0,0.0317 -0.0106,0.49741 -0.0106,0.46567 -0.0106,0.91017 0,1.20649 0.20108,1.80974 -0.30692,0.11642 -0.60325,0.11642 -0.59266,0 -0.70908,-0.48683 -0.635,0.55033 -1.42874,0.55033 -0.61384,0 -1.02658,-0.381 -0.40217,-0.381 -0.40217,-1.12183 0,-0.59267 0.254,-0.87841 0.254,-0.28575 0.67733,-0.42334 0.635,-0.20108 1.91558,-0.21166 z"
         style="font-style:normal;font-variant:normal;font-weight:bold;font-stretch:normal;font-family:Overlock;-inkscape-font-specification:'Overlock Bold';fill-opacity:1;stroke-width:0.264583"
         id="path917" />
      <path
         d="m 133.07995,133.11953 q 0.381,0 0.53975,0.13758 0.16933,0.13758 0.16933,0.43392 v 0.127 q 0.61383,-0.77259 1.19591,-0.77259 0.61383,0 0.61383,0.4445 0,0.29634 -0.381,0.77258 -0.22224,-0.1905 -0.49741,-0.1905 -0.53975,0 -0.97366,0.58209 -0.0318,0.67733 -0.0318,1.37582 0,1.38642 0.28575,2.05317 -0.28575,0.13758 -0.62442,0.13758 -0.45508,0 -0.61383,-0.20108 -0.15875,-0.20109 -0.15875,-0.64559 0,-0.127 0.0106,-0.71966 0.0106,-0.59267 0.0106,-0.93133 0,-1.76741 -0.0952,-2.55058 0.30691,-0.0529 0.55033,-0.0529 z"
         style="font-style:normal;font-variant:normal;font-weight:bold;font-stretch:normal;font-family:Overlock;-inkscape-font-specification:'Overlock Bold';fill-opacity:1;stroke-width:0.264583"
         id="path919" />
      <path
         d="m 136.29727,133.16186 q 0.0952,-0.0106 0.47625,-0.0106 -0.0212,-0.62442 -0.0635,-1.06892 0.22225,-0.0423 0.51858,-0.0423 0.73025,0 0.73025,0.39158 0,0.254 -0.0318,0.73025 1.14299,0 1.58749,-0.0635 0.0635,0.11642 0.0635,0.32808 0,0.28575 -0.127,0.39159 -0.127,0.0952 -0.40216,0.10583 -0.3175,0.0106 -1.143,0.0106 -0.0212,0.99483 -0.0212,2.14841 0,0.33867 0.0212,0.56092 0.0212,0.22225 0.0952,0.44449 0.0741,0.22225 0.22225,0.33867 0.14816,0.10583 0.381,0.10583 0.32808,0 0.67733,-0.37041 0.27516,0.30691 0.27516,0.51858 0,0.30692 -0.31749,0.45508 -0.30692,0.14817 -0.6985,0.14817 -1.76741,0 -1.76741,-1.92616 0,-0.49742 0,-1.37583 0.0106,-0.889 0.0106,-1.05833 -0.67733,0.0423 -0.96308,0.0847 -0.0423,-0.11641 -0.0423,-0.34924 0,-0.27517 0.11641,-0.37042 0.127,-0.0952 0.40217,-0.127 z"
         style="font-style:normal;font-variant:normal;font-weight:bold;font-stretch:normal;font-family:Overlock;-inkscape-font-specification:'Overlock Bold';fill-opacity:1;stroke-width:0.264583"
         id="path921" />
      <path
         d="m 140.94333,133.11953 q 0.762,0 0.762,0.56091 0,0.0635 -0.0318,0.43392 -0.0317,0.35983 -0.0635,0.89958 -0.0212,0.53975 -0.0212,1.02658 0,1.41816 0.27516,2.06374 -0.26458,0.11642 -0.60325,0.11642 -0.46566,0 -0.63499,-0.1905 -0.15875,-0.1905 -0.15875,-0.64558 0,-0.16934 0.0106,-0.81492 0.0106,-0.65616 0.0106,-1.00541 0,-1.53458 -0.0952,-2.40241 0.254,-0.0423 0.55033,-0.0423 z m 0.0529,-0.4445 q -0.3175,0 -0.53975,-0.21167 -0.22225,-0.21166 -0.22225,-0.53975 0,-0.31749 0.23284,-0.52916 0.23283,-0.22225 0.55033,-0.22225 0.30691,0 0.52916,0.22225 0.22225,0.21167 0.22225,0.52916 0,0.3175 -0.23283,0.53975 -0.23283,0.21167 -0.53975,0.21167 z"
         style="font-style:normal;font-variant:normal;font-weight:bold;font-stretch:normal;font-family:Overlock;-inkscape-font-specification:'Overlock Bold';fill-opacity:1;stroke-width:0.264583"
         id="path923" />
      <path
         d="m 144.12889,133.63811 q 0.75142,-0.59267 1.69333,-0.59267 0.64558,0 1.04775,0.381 0.40216,0.381 0.40216,1.22767 0,0.11641 -0.0212,0.82549 -0.0106,0.70908 -0.0106,1.03717 0,0.86783 0.27517,1.56633 -0.32808,0.13758 -0.59267,0.13758 -0.43391,0 -0.61383,-0.17992 -0.17991,-0.17991 -0.17991,-0.67733 0,-0.55033 0.0212,-1.32291 0.0212,-0.78317 0.0212,-1.0795 0,-0.58208 -0.23283,-0.86783 -0.23284,-0.28575 -0.60325,-0.28575 -0.56092,0 -1.16416,0.55033 0.0212,1.41817 0.0212,2.06375 0,1.01599 0.0635,1.73566 -0.28575,0.0423 -0.52916,0.0423 -0.68792,0 -0.68792,-0.42333 0,-0.30692 0.0212,-0.99483 0.0318,-0.68792 0.0318,-1.23825 0,-1.75682 -0.20108,-2.30716 0.254,-0.11641 0.55033,-0.11641 0.30691,0 0.47625,0.0952 0.16933,0.0953 0.21166,0.42333 z"
         style="font-style:normal;font-variant:normal;font-weight:bold;font-stretch:normal;font-family:Overlock;-inkscape-font-specification:'Overlock Bold';fill-opacity:1;stroke-width:0.264583"
         id="path925" />
      <path
         d="m 150.34128,136.09343 q -0.28574,0 -0.77258,-0.0212 0.10584,0.75141 0.47625,1.10066 0.381,0.34925 0.93133,0.34925 0.28575,0 0.59267,-0.14817 0.30691,-0.14816 0.45508,-0.42333 0.51858,0.27517 0.51858,0.59267 0,0.35983 -0.49741,0.55033 -0.49742,0.1905 -1.11125,0.1905 -0.99483,0 -1.77799,-0.65617 -0.77259,-0.65616 -0.77259,-1.89441 0,-1.30174 0.74084,-1.98966 0.75141,-0.6985 1.76741,-0.6985 0.81491,0 1.31233,0.4445 0.50799,0.4445 0.50799,1.05833 0,0.49742 -0.1905,0.8255 -0.17991,0.3175 -0.53974,0.46567 -0.35984,0.14816 -0.73025,0.20108 -0.37042,0.0529 -0.91017,0.0529 z m 0.45509,-2.2754 q -0.49742,0 -0.84667,0.38099 -0.34925,0.381 -0.41275,1.2065 0.67734,0 0.99483,-0.0317 1.02658,-0.127 1.02658,-0.80433 0,-0.30692 -0.22225,-0.52917 -0.21166,-0.22224 -0.53974,-0.22224 z"
         style="font-style:normal;font-variant:normal;font-weight:bold;font-stretch:normal;font-family:Overlock;-inkscape-font-specification:'Overlock Bold';fill-opacity:1;stroke-width:0.264583"
         id="path927" />
      <path
         d="m 156.32084,136.66493 q 0,-0.48683 0.0212,-0.75141 -0.3175,0.0423 -0.46566,0.0635 -0.13758,0.0212 -0.381,0.0635 -0.24342,0.0423 -0.35983,0.0953 -0.10584,0.0529 -0.23283,0.127 -0.127,0.0741 -0.17992,0.1905 -0.0529,0.10583 -0.0529,0.254 0,0.42333 0.21167,0.62441 0.21166,0.20108 0.53975,0.20108 0.53975,0 0.92074,-0.40216 -0.0212,-0.13758 -0.0212,-0.46567 z m 0.0423,-1.39699 q 0,-0.35983 -0.0212,-0.55033 -0.0106,-0.1905 -0.0847,-0.43392 -0.0635,-0.24342 -0.23284,-0.34925 -0.15874,-0.11641 -0.43391,-0.11641 -0.34925,0 -0.66675,0.23283 -0.30691,0.22225 -0.4445,0.62441 -0.94191,-0.0106 -0.94191,-0.56091 0,-0.45508 0.635,-0.762 0.64558,-0.30692 1.46049,-0.30692 0.97367,0 1.41817,0.40217 0.45508,0.40217 0.45508,1.43933 0,0.0317 -0.0106,0.49741 -0.0106,0.46567 -0.0106,0.91017 0,1.20649 0.20108,1.80974 -0.30691,0.11642 -0.60325,0.11642 -0.59266,0 -0.70908,-0.48683 -0.63499,0.55033 -1.42874,0.55033 -0.61383,0 -1.02658,-0.381 -0.40217,-0.381 -0.40217,-1.12183 0,-0.59267 0.254,-0.87841 0.254,-0.28575 0.67733,-0.42334 0.635,-0.20108 1.91558,-0.21166 z"
         style="font-style:normal;font-variant:normal;font-weight:bold;font-stretch:normal;font-family:Overlock;-inkscape-font-specification:'Overlock Bold';fill-opacity:1;stroke-width:0.264583"
         id="path929" />
      <path
         d="m 162.02522,137.68093 q -0.6985,0.60325 -1.60866,0.60325 -1.55575,0 -1.55575,-1.50283 0,-0.0741 0.0106,-0.80433 0.0212,-0.74083 0.0212,-1.06891 0,-1.09008 -0.17991,-1.70392 0.28574,-0.0953 0.58208,-0.0953 0.39158,0 0.56091,0.127 0.16933,0.127 0.16933,0.42334 0,0.55033 -0.0317,1.50282 -0.0318,0.9525 -0.0318,1.22767 0,0.53975 0.22225,0.82549 0.23284,0.28575 0.59267,0.28575 0.61383,0 1.17475,-0.53974 -0.0106,-0.43392 -0.0106,-1.34408 0,-1.5875 -0.0741,-2.46591 0.29633,-0.0423 0.52916,-0.0423 0.67734,0 0.67734,0.41275 0,0.1905 -0.0212,1.05833 -0.0212,0.86783 -0.0212,1.43933 0,1.32291 0.20108,2.07433 -0.22224,0.11641 -0.52916,0.11641 -0.20108,0 -0.3175,-0.0318 -0.11642,-0.0212 -0.22225,-0.13758 -0.10583,-0.127 -0.13758,-0.35983 z"
         style="font-style:normal;font-variant:normal;font-weight:bold;font-stretch:normal;font-family:Overlock;-inkscape-font-specification:'Overlock Bold';fill-opacity:1;stroke-width:0.264583"
         id="path931" />
    </g>
  </g>
</svg>
