<svg width="261" height="362" viewBox="0 0 261 362" fill="none" xmlns="http://www.w3.org/2000/svg">
<g clip-path="url(#clip0)">
<path d="M65.6254 228.878C76.5222 228.878 85.3557 220.215 85.3557 209.528C85.3557 198.842 76.5222 190.179 65.6254 190.179C54.7286 190.179 45.895 198.842 45.895 209.528C45.895 220.215 54.7286 228.878 65.6254 228.878Z" fill="#FFE791"/>
<path d="M132.006 142.356H124.019V363.03H132.006V142.356Z" fill="#FFE791"/>
<path d="M128.13 142.701C141.751 142.701 152.793 131.873 152.793 118.515C152.793 105.157 141.751 94.328 128.13 94.328C114.509 94.328 103.467 105.157 103.467 118.515C103.467 131.873 114.509 142.701 128.13 142.701Z" fill="#FFE791"/>
<path d="M77.5652 221.062L70.649 224.978L124.438 316.344L131.354 312.428L77.5652 221.062Z" fill="#FFE791"/>
<path d="M179.57 184.279C190.466 184.279 199.3 175.616 199.3 164.93C199.3 154.244 190.466 145.581 179.57 145.581C168.673 145.581 159.839 154.244 159.839 164.93C159.839 175.616 168.673 184.279 179.57 184.279Z" fill="#FFE791"/>
<path d="M178.578 158.061L185.494 161.977L131.705 253.343L124.789 249.427L178.578 158.061Z" fill="#FFE791"/>
</g>
<defs>
<clipPath id="clip0">
<rect width="261" height="362" fill="#ffe790"/>
</clipPath>
</defs>
</svg>
